<?xml version="1.0" standalone="no"?>
<!DOCTYPE svg PUBLIC "-//W3C//DTD SVG 20010904//EN"
 "http://www.w3.org/TR/2001/REC-SVG-20010904/DTD/svg10.dtd">
<svg version="1.0" xmlns="http://www.w3.org/2000/svg"
 width="217" height="46" viewBox="0 0 512.000000 207.000000"
 preserveAspectRatio="xMidYMid meet">

<g transform="translate(0.000000,207.000000) scale(0.100000,-0.100000)"
fill="#39aaaa" stroke="none">
<path d="M3550 2037 c0 -33 -9 -39 -34 -22 -31 22 -39 18 -20 -10 19 -29 19
-29 -21 -43 -22 -8 -25 -11 -10 -11 11 -1 26 -5 34 -10 12 -8 12 -13 -3 -35
-18 -29 -11 -33 18 -11 28 21 36 19 36 -10 0 -14 5 -25 10 -25 6 0 10 11 10
25 0 29 8 31 36 10 29 -22 36 -18 18 11 -15 22 -15 27 -3 35 8 5 23 9 34 10
15 0 12 3 -10 11 -40 14 -40 14 -21 43 19 28 11 32 -20 10 -25 -17 -34 -11
-34 22 0 13 -4 23 -10 23 -5 0 -10 -10 -10 -23z"/>
<path d="M3210 1971 c0 -32 -1 -33 -32 -27 l-33 6 27 -24 27 -24 -32 -22 -32
-21 39 7 38 7 -6 -34 -7 -34 21 25 22 24 19 -24 19 -25 0 31 c0 29 2 30 33 26
l32 -4 -28 20 -28 19 33 22 33 22 -38 -6 -39 -6 7 33 6 33 -21 -24 c-11 -13
-22 -22 -24 -20 -1 2 -10 15 -19 29 l-17 24 0 -33z"/>
<path d="M3901 1995 c-1 -5 -8 -19 -16 -29 -14 -18 -15 -18 -35 5 l-21 24 6
-33 7 -33 -39 6 -38 6 28 -18 c33 -21 33 -27 5 -48 -23 -17 -23 -17 10 -13 30
4 32 3 32 -26 l0 -31 19 25 19 24 22 -24 21 -25 -7 34 -6 34 38 -7 39 -7 -33
22 -34 22 29 23 28 24 -32 -6 c-30 -6 -32 -4 -36 27 -2 19 -5 30 -6 24z"/>
<path d="M2966 1816 c-7 -30 -18 -33 -36 -11 -22 26 -31 16 -15 -15 15 -29 15
-30 -9 -30 -34 0 -41 -16 -11 -24 29 -7 32 -18 10 -36 -26 -22 -16 -31 15 -15
l30 16 0 -31 c0 -16 5 -30 10 -30 6 0 10 9 10 19 0 28 18 36 39 17 27 -24 33
-19 16 13 -15 29 -15 30 18 37 32 7 32 7 7 16 -34 12 -34 13 -14 43 l18 28
-32 -17 c-30 -16 -32 -16 -32 1 0 10 -4 24 -9 31 -6 10 -10 7 -15 -12z"/>
<path d="M3270 1525 l0 -195 -197 -2 -198 -3 0 -290 0 -290 198 -3 197 -2 0
-195 0 -195 485 0 485 0 0 195 0 195 195 0 195 0 0 -195 0 -195 245 0 245 0 0
685 0 685 -245 0 -245 0 0 -195 0 -195 -195 0 -195 0 0 195 0 195 -485 0 -485
0 0 -195z m482 -92 l3 -197 193 3 192 3 0 -201 0 -201 -192 -2 -193 -3 -3
-197 -2 -198 -195 0 -195 0 -2 197 -3 198 -197 3 -198 2 0 195 0 195 198 2
197 3 3 198 2 197 195 0 195 0 2 -197z"/>
<path d="M2737 1563 c6 -33 4 -36 -13 -29 -10 5 -28 10 -39 13 -16 4 -14 -1 9
-20 l29 -25 -32 -16 c-40 -21 -39 -26 4 -19 35 6 35 5 25 -21 -17 -45 -11 -53
14 -22 l23 30 16 -30 16 -29 1 34 c0 22 4 32 13 28 6 -2 23 -7 37 -11 25 -7
25 -7 -4 18 l-29 24 32 16 c41 22 39 30 -5 21 -34 -6 -35 -5 -28 17 3 13 9 30
11 38 3 8 -7 3 -21 -13 l-25 -27 -16 30 c-20 40 -25 38 -18 -7z"/>
<path d="M2661 1272 l-13 -33 -22 20 c-28 26 -40 27 -26 2 16 -31 12 -39 -22
-44 l-33 -3 33 -13 33 -13 -20 -22 c-26 -28 -27 -40 -2 -26 31 16 39 12 44
-22 l3 -33 13 33 13 33 22 -20 c31 -29 39 -26 21 8 l-15 30 38 3 37 4 -33 13
-33 13 20 22 c26 28 27 40 2 26 -31 -16 -39 -12 -44 23 l-3 32 -13 -33z"/>
<path d="M466 1220 c-141 -43 -159 -290 -26 -357 92 -48 205 -17 248 67 24 49
30 138 11 187 -32 87 -135 132 -233 103z m120 -69 c40 -25 58 -77 51 -145 -17
-142 -191 -144 -212 -3 -11 69 11 127 55 149 45 23 68 22 106 -1z"/>
<path d="M823 1219 c-42 -12 -73 -53 -73 -96 0 -48 42 -87 116 -108 102 -29
131 -65 82 -99 -48 -34 -111 -17 -144 39 -8 14 -17 17 -38 11 -24 -6 -27 -10
-21 -34 3 -15 19 -40 35 -57 25 -25 39 -30 93 -33 109 -7 177 45 164 125 -9
53 -42 81 -122 105 -38 11 -76 25 -82 31 -19 14 -16 45 6 57 41 21 111 5 111
-25 0 -11 11 -15 39 -15 35 0 38 2 34 24 -13 64 -111 101 -200 75z"/>
<path d="M0 1030 l0 -190 35 0 35 0 0 85 0 85 80 0 80 0 0 -85 0 -85 35 0 35
0 0 190 0 190 -35 0 -35 0 0 -75 0 -75 -80 0 -80 0 0 75 0 75 -35 0 -35 0 0
-190z"/>
<path d="M1082 1033 l3 -188 32 -3 32 -3 3 73 3 73 71 5 c106 8 144 41 144
127 0 27 -8 43 -34 69 l-34 34 -111 0 -111 0 2 -187z m200 110 c22 -20 23 -42
2 -71 -13 -19 -24 -22 -75 -22 l-59 0 0 55 0 55 57 0 c38 0 62 -5 75 -17z"/>
<path d="M1410 1030 l0 -190 35 0 35 0 0 190 0 190 -35 0 -35 0 0 -190z"/>
<path d="M1510 1190 c0 -30 1 -30 55 -30 l55 0 0 -160 0 -160 35 0 35 0 0 160
0 160 60 0 60 0 0 30 0 30 -150 0 -150 0 0 -30z"/>
<path d="M1835 1039 c-38 -100 -72 -186 -74 -191 -2 -5 14 -8 35 -6 36 3 40 6
54 46 l14 42 82 0 82 0 14 -42 c13 -39 18 -43 51 -46 20 -2 37 0 37 5 0 4 -33
90 -72 190 l-73 183 -40 0 -40 0 -70 -181z m139 27 c14 -37 26 -70 26 -72 0
-2 -25 -4 -55 -4 -30 0 -55 2 -55 4 0 10 53 147 55 144 2 -2 15 -34 29 -72z"/>
<path d="M2160 1030 l0 -190 130 0 130 0 0 30 0 30 -95 0 -95 0 0 160 0 160
-35 0 -35 0 0 -190z"/>
<path d="M2630 950 c0 -32 -9 -36 -41 -20 -25 14 -24 2 2 -26 l20 -22 -33 -13
-33 -13 33 -3 c34 -5 38 -13 22 -44 -14 -25 -2 -24 26 2 l22 20 13 -33 13 -33
3 33 c5 34 13 38 44 22 25 -14 24 -2 -2 26 l-20 22 33 13 33 13 -37 4 -38 3
15 30 c18 34 10 37 -21 8 l-22 -20 -10 30 c-14 39 -22 39 -22 1z"/>
<path d="M2710 663 c0 -6 5 -24 10 -39 10 -26 10 -27 -25 -21 -43 7 -44 2 -4
-19 l32 -16 -29 -25 c-23 -19 -25 -24 -9 -20 11 3 29 8 39 13 17 7 19 4 13
-29 -7 -45 -2 -47 18 -7 l16 30 25 -27 c14 -16 24 -21 21 -13 -2 8 -8 25 -11
38 -7 22 -6 23 28 17 44 -9 46 -1 5 21 l-32 16 29 24 c29 25 29 25 4 18 -14
-4 -31 -9 -37 -11 -9 -4 -13 6 -13 28 l-1 34 -16 -29 -16 -30 -23 30 c-13 16
-24 24 -24 17z"/>
<path d="M2950 400 l0 -31 -30 16 c-31 16 -41 7 -15 -15 22 -18 19 -29 -10
-36 -30 -8 -23 -24 11 -24 24 0 24 -1 9 -30 -16 -31 -7 -41 15 -15 18 22 27
19 38 -12 l10 -28 7 32 7 32 31 -16 31 -16 -18 28 c-20 30 -20 31 14 43 25 9
25 9 -7 16 -33 7 -33 8 -18 37 17 32 11 37 -16 13 -21 -19 -39 -11 -39 17 0
10 -4 19 -10 19 -5 0 -10 -14 -10 -30z"/>
<path d="M3206 231 l6 -34 -38 7 -39 7 32 -21 32 -22 -26 -22 -27 -23 32 5
c31 4 32 3 32 -29 l0 -33 17 24 c9 14 18 27 19 29 2 2 13 -7 24 -20 l21 -24
-6 33 -7 33 39 -6 38 -6 -33 22 -34 22 26 16 c35 21 33 32 -4 21 -29 -8 -30
-7 -30 23 l0 32 -19 -25 -19 -24 -22 24 -21 25 7 -34z"/>
<path d="M3840 234 c0 -29 -2 -30 -32 -26 l-33 4 28 -20 28 -19 -33 -22 -33
-22 38 6 39 6 -7 -33 -6 -33 21 24 c11 13 22 22 24 20 1 -2 10 -15 19 -29 l17
-24 0 33 c0 32 1 33 33 27 l32 -6 -27 24 -27 24 32 22 32 21 -39 -7 -38 -7 6
34 7 34 -21 -25 -22 -24 -19 24 -19 25 0 -31z"/>
<path d="M3550 185 c0 -29 -8 -31 -36 -10 -29 22 -36 18 -18 -11 15 -22 15
-27 3 -35 -8 -5 -23 -9 -34 -10 -15 0 -12 -3 10 -11 40 -14 40 -14 21 -43 -19
-28 -11 -32 20 -10 25 17 34 11 34 -22 0 -12 5 -23 10 -23 6 0 10 11 10 23 0
33 9 39 34 22 31 -22 39 -18 20 10 -19 29 -19 29 21 43 22 8 25 11 10 11 -11
1 -26 5 -34 10 -12 8 -12 13 3 35 18 29 11 33 -18 11 -28 -21 -36 -19 -36 10
0 14 -4 25 -10 25 -5 0 -10 -11 -10 -25z"/>
</g>
</svg>
